<svg xmlns="http://www.w3.org/2000/svg" width="880" height="300" viewBox="0 0 880 300" role="img" aria-label="repository constellation">
  <defs>
    <linearGradient id="bg" x1="0" y1="0" x2="1" y2="1">
      <stop offset="0" stop-color="#fdfbf6"/>
      <stop offset="1" stop-color="#efe8ef"/>
    </linearGradient>
    <linearGradient id="edge" x1="0" y1="0" x2="1" y2="0">
      <stop offset="0" stop-color="#c9821a"/>
      <stop offset="1" stop-color="#b34a63"/>
    </linearGradient>
    <linearGradient id="fade" x1="0" y1="1" x2="0" y2="0">
      <stop offset="0" stop-color="#c9821a" stop-opacity=".62"/>
      <stop offset="1" stop-color="#b34a63" stop-opacity=".95"/>
    </linearGradient>
  </defs>
  <style>
    text { font-family: 'Noto Sans SC','PingFang SC','Microsoft YaHei','Segoe UI',Helvetica,Arial,sans-serif; }
    .mono { font-family: 'JetBrains Mono','Fira Code','SFMono-Regular',ui-monospace,Menlo,Consolas,monospace; }
    .t { fill: #201a22; }
    .d { fill: #5c5158; }
    .f { fill: #8d8189; }
    .title { font-size: 13px; font-weight: 600; letter-spacing: .06em; }
    .kpi { font-size: 22px; font-weight: 700; }
    .cap { font-size: 9.5px; letter-spacing: .12em; }
    .sm { font-size: 10.5px; }
    @keyframes drift { from { transform: translateX(0); } to { transform: translateX(-160px); } }
    @keyframes glow { 0%,100% { opacity: .35; } 50% { opacity: 1; } }
    @keyframes grow { from { transform: scaleX(0); } to { transform: scaleX(1); } }
    @keyframes rise { from { transform: scaleY(0); } to { transform: scaleY(1); } }
    @keyframes pop { from { opacity: 0; transform: scale(.2); } to { opacity: 1; transform: scale(1); } }
    .drift { animation: drift 14s linear infinite; }
    .glow { animation: glow 4.5s ease-in-out infinite; }
    .grow { transform-box: fill-box; transform-origin: left center; animation: grow 1.6s cubic-bezier(.22,1,.36,1) both; }
    .rise { transform-box: fill-box; transform-origin: bottom center; animation: rise 1.1s cubic-bezier(.22,1,.36,1) both; }
    .pop { transform-box: fill-box; transform-origin: center; animation: pop .7s cubic-bezier(.22,1,.36,1) both; }
    @media (prefers-reduced-motion: reduce) {
      .drift, .glow, .grow, .rise, .pop { animation: none; }
      .grow, .rise, .pop { transform: none; opacity: 1; }
    }

  </style>
  <rect width="880" height="300" rx="14" fill="url(#bg)"/>
  <rect x=".5" y=".5" width="879" height="299" rx="13.5" fill="none" stroke="#ded3d0"/>
  <rect x="14" y="14" width="3" height="14" rx="1.5" fill="url(#edge)"/>
  <text class="t title" x="26" y="25">repository constellation</text>
  <text class="f cap mono" x="864" y="25" text-anchor="end">76 repos</text>
  <text class="f cap mono" x="46" y="50">X = LAST PUSH · Y = STARS (LOG SCALE) · COLOR = PRIMARY LANGUAGE</text>
  <line x1="143.7" y1="62" x2="143.7" y2="232" stroke="#e7dcdb" stroke-width="1" stroke-dasharray="2 6"/>
  <text class="f cap mono" x="143.7" y="248" text-anchor="middle">2021</text>
  <line x1="265.7" y1="62" x2="265.7" y2="232" stroke="#e7dcdb" stroke-width="1" stroke-dasharray="2 6"/>
  <text class="f cap mono" x="265.7" y="248" text-anchor="middle">2022</text>
  <line x1="387.6" y1="62" x2="387.6" y2="232" stroke="#e7dcdb" stroke-width="1" stroke-dasharray="2 6"/>
  <text class="f cap mono" x="387.6" y="248" text-anchor="middle">2023</text>
  <line x1="509.5" y1="62" x2="509.5" y2="232" stroke="#e7dcdb" stroke-width="1" stroke-dasharray="2 6"/>
  <text class="f cap mono" x="509.5" y="248" text-anchor="middle">2024</text>
  <line x1="631.8" y1="62" x2="631.8" y2="232" stroke="#e7dcdb" stroke-width="1" stroke-dasharray="2 6"/>
  <text class="f cap mono" x="631.8" y="248" text-anchor="middle">2025</text>
  <line x1="753.7" y1="62" x2="753.7" y2="232" stroke="#e7dcdb" stroke-width="1" stroke-dasharray="2 6"/>
  <text class="f cap mono" x="753.7" y="248" text-anchor="middle">2026</text>
  <line x1="46" y1="212.5" x2="840" y2="212.5" stroke="#e7dcdb" stroke-width="1" stroke-dasharray="1 7"/>
  <text class="f cap mono" x="38" y="215.5" text-anchor="end">1</text>
  <line x1="46" y1="164.4" x2="840" y2="164.4" stroke="#e7dcdb" stroke-width="1" stroke-dasharray="1 7"/>
  <text class="f cap mono" x="38" y="167.4" text-anchor="end">10</text>
  <line x1="46" y1="101.9" x2="840" y2="101.9" stroke="#e7dcdb" stroke-width="1" stroke-dasharray="1 7"/>
  <text class="f cap mono" x="38" y="104.9" text-anchor="end">100</text>
  <line x1="46" y1="233" x2="840" y2="233" stroke="#ded3d0" stroke-width="1"/>
  <circle class="glow" cx="840.0" cy="100.8" r="14.6" fill="#00ADD8" opacity=".18" style="animation-delay:0ms"/>
  <circle class="pop" cx="840.0" cy="100.8" r="6.3" fill="#00ADD8" opacity=".92" style="animation-delay:0ms"/>
  <circle class="glow" cx="839.9" cy="72.0" r="20.7" fill="#3572A5" opacity=".18" style="animation-delay:600ms"/>
  <circle class="pop" cx="839.9" cy="72.0" r="9.0" fill="#3572A5" opacity=".92" style="animation-delay:22ms"/>
  <circle class="pop" cx="839.7" cy="142.4" r="4.3" fill="#3572A5" opacity=".92" style="animation-delay:44ms"/>
  <circle class="pop" cx="839.7" cy="212.5" r="2.8" fill="#f1e05a" opacity=".92" style="animation-delay:66ms"/>
  <circle class="pop" cx="839.5" cy="232.0" r="2.4" fill="#3572A5" opacity=".92" style="animation-delay:88ms"/>
  <circle class="pop" cx="837.4" cy="192.9" r="3.1" fill="#3178c6" opacity=".92" style="animation-delay:110ms"/>
  <circle class="pop" cx="835.3" cy="232.0" r="2.4" fill="#3572A5" opacity=".92" style="animation-delay:132ms"/>
  <circle class="pop" cx="834.9" cy="232.0" r="2.4" fill="#3572A5" opacity=".92" style="animation-delay:154ms"/>
  <circle class="pop" cx="834.5" cy="212.5" r="2.8" fill="#3178c6" opacity=".92" style="animation-delay:176ms"/>
  <circle class="pop" cx="833.4" cy="232.0" r="2.4" fill="#3178c6" opacity=".92" style="animation-delay:198ms"/>
  <circle class="pop" cx="831.1" cy="232.0" r="2.4" fill="#89e051" opacity=".92" style="animation-delay:220ms"/>
  <circle class="pop" cx="827.7" cy="186.6" r="3.2" fill="#f1e05a" opacity=".92" style="animation-delay:242ms"/>
  <circle class="pop" cx="823.5" cy="232.0" r="2.4" fill="#00ADD8" opacity=".92" style="animation-delay:264ms"/>
  <circle class="pop" cx="812.5" cy="232.0" r="2.4" fill="#3178c6" opacity=".92" style="animation-delay:286ms"/>
  <circle class="pop" cx="810.7" cy="232.0" r="2.4" fill="#dea584" opacity=".92" style="animation-delay:308ms"/>
  <circle class="pop" cx="793.2" cy="232.0" r="2.4" fill="#3572A5" opacity=".92" style="animation-delay:330ms"/>
  <circle class="pop" cx="790.3" cy="232.0" r="2.4" fill="#3178c6" opacity=".92" style="animation-delay:352ms"/>
  <circle class="pop" cx="789.0" cy="232.0" r="2.4" fill="#8d8189" opacity=".92" style="animation-delay:374ms"/>
  <circle class="pop" cx="777.1" cy="232.0" r="2.4" fill="#3178c6" opacity=".92" style="animation-delay:396ms"/>
  <circle class="pop" cx="776.9" cy="232.0" r="2.4" fill="#dea584" opacity=".92" style="animation-delay:418ms"/>
  <circle class="pop" cx="775.1" cy="232.0" r="2.4" fill="#3178c6" opacity=".92" style="animation-delay:440ms"/>
  <circle class="pop" cx="771.9" cy="232.0" r="2.4" fill="#dea584" opacity=".92" style="animation-delay:462ms"/>
  <circle class="pop" cx="767.8" cy="232.0" r="2.4" fill="#3178c6" opacity=".92" style="animation-delay:484ms"/>
  <circle class="pop" cx="765.1" cy="201.0" r="2.9" fill="#3178c6" opacity=".92" style="animation-delay:506ms"/>
  <circle class="pop" cx="764.7" cy="232.0" r="2.4" fill="#3178c6" opacity=".92" style="animation-delay:528ms"/>
  <circle class="pop" cx="764.4" cy="232.0" r="2.4" fill="#8d8189" opacity=".92" style="animation-delay:550ms"/>
  <circle class="pop" cx="760.5" cy="212.5" r="2.8" fill="#3572A5" opacity=".92" style="animation-delay:572ms"/>
  <circle class="pop" cx="760.1" cy="232.0" r="2.4" fill="#dea584" opacity=".92" style="animation-delay:594ms"/>
  <circle class="pop" cx="759.8" cy="232.0" r="2.4" fill="#f1e05a" opacity=".92" style="animation-delay:616ms"/>
  <circle class="pop" cx="758.7" cy="232.0" r="2.4" fill="#00ADD8" opacity=".92" style="animation-delay:638ms"/>
  <circle class="pop" cx="747.9" cy="232.0" r="2.4" fill="#89e051" opacity=".92" style="animation-delay:660ms"/>
  <circle class="pop" cx="747.9" cy="232.0" r="2.4" fill="#3572A5" opacity=".92" style="animation-delay:682ms"/>
  <circle class="pop" cx="744.4" cy="232.0" r="2.4" fill="#f1e05a" opacity=".92" style="animation-delay:704ms"/>
  <circle class="pop" cx="740.1" cy="212.5" r="2.8" fill="#3178c6" opacity=".92" style="animation-delay:726ms"/>
  <circle class="pop" cx="732.1" cy="232.0" r="2.4" fill="#8d8189" opacity=".92" style="animation-delay:748ms"/>
  <circle class="pop" cx="718.6" cy="232.0" r="2.4" fill="#8d8189" opacity=".92" style="animation-delay:770ms"/>
  <circle class="pop" cx="697.1" cy="232.0" r="2.4" fill="#8d8189" opacity=".92" style="animation-delay:792ms"/>
  <circle class="pop" cx="688.8" cy="139.1" r="4.4" fill="#e34c26" opacity=".92" style="animation-delay:814ms"/>
  <circle class="pop" cx="675.7" cy="212.5" r="2.8" fill="#8d8189" opacity=".92" style="animation-delay:836ms"/>
  <circle class="pop" cx="656.6" cy="232.0" r="2.4" fill="#3178c6" opacity=".92" style="animation-delay:858ms"/>
  <circle class="pop" cx="656.6" cy="232.0" r="2.4" fill="#8d8189" opacity=".92" style="animation-delay:880ms"/>
  <circle class="pop" cx="656.6" cy="232.0" r="2.4" fill="#8d8189" opacity=".92" style="animation-delay:902ms"/>
  <circle class="pop" cx="616.9" cy="232.0" r="2.4" fill="#8d8189" opacity=".92" style="animation-delay:924ms"/>
  <circle class="pop" cx="612.2" cy="212.5" r="2.8" fill="#f1e05a" opacity=".92" style="animation-delay:946ms"/>
  <circle class="pop" cx="606.4" cy="186.6" r="3.2" fill="#3572A5" opacity=".92" style="animation-delay:968ms"/>
  <circle class="pop" cx="605.6" cy="232.0" r="2.4" fill="#8d8189" opacity=".92" style="animation-delay:990ms"/>
  <circle class="pop" cx="593.4" cy="232.0" r="2.4" fill="#a91e50" opacity=".92" style="animation-delay:1012ms"/>
  <circle class="pop" cx="593.2" cy="232.0" r="2.4" fill="#f1e05a" opacity=".92" style="animation-delay:1034ms"/>
  <circle class="pop" cx="590.5" cy="232.0" r="2.4" fill="#3178c6" opacity=".92" style="animation-delay:1056ms"/>
  <circle class="pop" cx="580.4" cy="232.0" r="2.4" fill="#e34c26" opacity=".92" style="animation-delay:1078ms"/>
  <circle class="pop" cx="537.6" cy="232.0" r="2.4" fill="#3178c6" opacity=".92" style="animation-delay:1100ms"/>
  <circle class="pop" cx="534.0" cy="232.0" r="2.4" fill="#ff6347" opacity=".92" style="animation-delay:1122ms"/>
  <circle class="pop" cx="512.6" cy="232.0" r="2.4" fill="#e34c26" opacity=".92" style="animation-delay:1144ms"/>
  <circle class="pop" cx="495.8" cy="232.0" r="2.4" fill="#3178c6" opacity=".92" style="animation-delay:1166ms"/>
  <circle class="pop" cx="452.1" cy="232.0" r="2.4" fill="#8d8189" opacity=".92" style="animation-delay:1188ms"/>
  <circle class="pop" cx="447.5" cy="232.0" r="2.4" fill="#e34c26" opacity=".92" style="animation-delay:1210ms"/>
  <circle class="pop" cx="441.9" cy="232.0" r="2.4" fill="#e34c26" opacity=".92" style="animation-delay:1232ms"/>
  <circle class="pop" cx="423.4" cy="232.0" r="2.4" fill="#f1e05a" opacity=".92" style="animation-delay:1254ms"/>
  <circle class="pop" cx="410.3" cy="212.5" r="2.8" fill="#7355dd" opacity=".92" style="animation-delay:1276ms"/>
  <circle class="pop" cx="402.7" cy="212.5" r="2.8" fill="#e34c26" opacity=".92" style="animation-delay:1298ms"/>
  <circle class="pop" cx="380.9" cy="232.0" r="2.4" fill="#8d8189" opacity=".92" style="animation-delay:1320ms"/>
  <circle class="pop" cx="370.9" cy="186.6" r="3.2" fill="#3178c6" opacity=".92" style="animation-delay:1342ms"/>
  <circle class="pop" cx="345.9" cy="232.0" r="2.4" fill="#f1e05a" opacity=".92" style="animation-delay:1364ms"/>
  <circle class="pop" cx="306.1" cy="232.0" r="2.4" fill="#3178c6" opacity=".92" style="animation-delay:1386ms"/>
  <circle class="pop" cx="256.6" cy="212.5" r="2.8" fill="#f34b7d" opacity=".92" style="animation-delay:1408ms"/>
  <circle class="glow" cx="225.2" cy="98.5" r="15.0" fill="#f34b7d" opacity=".18" style="animation-delay:1200ms"/>
  <circle class="pop" cx="225.2" cy="98.5" r="6.5" fill="#f34b7d" opacity=".92" style="animation-delay:1430ms"/>
  <circle class="pop" cx="205.6" cy="232.0" r="2.4" fill="#e34c26" opacity=".92" style="animation-delay:1452ms"/>
  <circle class="pop" cx="204.9" cy="232.0" r="2.4" fill="#3178c6" opacity=".92" style="animation-delay:1474ms"/>
  <circle class="pop" cx="204.7" cy="232.0" r="2.4" fill="#f1e05a" opacity=".92" style="animation-delay:1496ms"/>
  <circle class="pop" cx="197.0" cy="232.0" r="2.4" fill="#8d8189" opacity=".92" style="animation-delay:1518ms"/>
  <circle class="pop" cx="195.5" cy="212.5" r="2.8" fill="#8d8189" opacity=".92" style="animation-delay:1540ms"/>
  <circle class="pop" cx="191.6" cy="232.0" r="2.4" fill="#4F5D95" opacity=".92" style="animation-delay:1562ms"/>
  <circle class="pop" cx="183.3" cy="232.0" r="2.4" fill="#f1e05a" opacity=".92" style="animation-delay:1584ms"/>
  <circle class="pop" cx="157.4" cy="232.0" r="2.4" fill="#f34b7d" opacity=".92" style="animation-delay:1606ms"/>
  <circle class="pop" cx="148.2" cy="181.5" r="3.3" fill="#3572A5" opacity=".92" style="animation-delay:1628ms"/>
  <circle class="pop" cx="46.0" cy="232.0" r="2.4" fill="#8d8189" opacity=".92" style="animation-delay:1650ms"/>
  <text class="d sm mono pop" x="822.9" y="75.5" text-anchor="end" style="animation-delay:900ms">HyperADRules · 291★</text>
  <text class="d sm mono pop" x="239.7" y="102.0" text-anchor="start" style="animation-delay:1020ms">MyOI · 113★</text>
  <text class="d sm mono pop" x="825.6" y="104.3" text-anchor="end" style="animation-delay:1140ms">OneSSH · 104★</text>
  <text class="d sm mono pop" x="701.2" y="142.6" text-anchor="start" style="animation-delay:1260ms">Ollama2OpenAI · 26★</text>
  <text class="d sm mono pop" x="827.5" y="145.9" text-anchor="end" style="animation-delay:1380ms">HyperSkills · 23★</text>
  <circle cx="50" cy="284" r="4" fill="#3178c6"/>
  <text class="f cap mono" x="59" y="288">TYPESCRIPT</text>
  <circle cx="168" cy="284" r="4" fill="#3572A5"/>
  <text class="f cap mono" x="177" y="288">PYTHON</text>
  <circle cx="286" cy="284" r="4" fill="#f1e05a"/>
  <text class="f cap mono" x="295" y="288">JAVASCRIPT</text>
  <circle cx="404" cy="284" r="4" fill="#e34c26"/>
  <text class="f cap mono" x="413" y="288">HTML</text>
  <circle cx="522" cy="284" r="4" fill="#dea584"/>
  <text class="f cap mono" x="531" y="288">RUST</text>
  <circle cx="640" cy="284" r="4" fill="#00ADD8"/>
  <text class="f cap mono" x="649" y="288">GO</text>
  <circle cx="758" cy="284" r="4" fill="#f34b7d"/>
  <text class="f cap mono" x="767" y="288">C++</text>
</svg>
