<svg xmlns="http://www.w3.org/2000/svg" width="880" height="300" viewBox="0 0 880 300" role="img" aria-label="repository constellation">
  <defs>
    <linearGradient id="bg" x1="0" y1="0" x2="1" y2="1">
      <stop offset="0" stop-color="#0a0d13"/>
      <stop offset="1" stop-color="#17132e"/>
    </linearGradient>
    <linearGradient id="edge" x1="0" y1="0" x2="1" y2="0">
      <stop offset="0" stop-color="#ffc857"/>
      <stop offset="1" stop-color="#e5657f"/>
    </linearGradient>
    <linearGradient id="fade" x1="0" y1="1" x2="0" y2="0">
      <stop offset="0" stop-color="#ffc857" stop-opacity=".38"/>
      <stop offset="1" stop-color="#e5657f" stop-opacity=".95"/>
    </linearGradient>
  </defs>
  <style>
    text { font-family: 'Noto Sans SC','PingFang SC','Microsoft YaHei','Segoe UI',Helvetica,Arial,sans-serif; }
    .mono { font-family: 'JetBrains Mono','Fira Code','SFMono-Regular',ui-monospace,Menlo,Consolas,monospace; }
    .t { fill: #eef1f7; }
    .d { fill: #a8b3c4; }
    .f { fill: #7d8899; }
    .title { font-size: 13px; font-weight: 600; letter-spacing: .06em; }
    .kpi { font-size: 22px; font-weight: 700; }
    .cap { font-size: 9.5px; letter-spacing: .12em; }
    .sm { font-size: 10.5px; }
    @keyframes drift { from { transform: translateX(0); } to { transform: translateX(-160px); } }
    @keyframes glow { 0%,100% { opacity: .35; } 50% { opacity: 1; } }
    @keyframes grow { from { transform: scaleX(0); } to { transform: scaleX(1); } }
    @keyframes rise { from { transform: scaleY(0); } to { transform: scaleY(1); } }
    @keyframes pop { from { opacity: 0; transform: scale(.2); } to { opacity: 1; transform: scale(1); } }
    .drift { animation: drift 14s linear infinite; }
    .glow { animation: glow 4.5s ease-in-out infinite; }
    .grow { transform-box: fill-box; transform-origin: left center; animation: grow 1.6s cubic-bezier(.22,1,.36,1) both; }
    .rise { transform-box: fill-box; transform-origin: bottom center; animation: rise 1.1s cubic-bezier(.22,1,.36,1) both; }
    .pop { transform-box: fill-box; transform-origin: center; animation: pop .7s cubic-bezier(.22,1,.36,1) both; }
    @media (prefers-reduced-motion: reduce) {
      .drift, .glow, .grow, .rise, .pop { animation: none; }
      .grow, .rise, .pop { transform: none; opacity: 1; }
    }

  </style>
  <rect width="880" height="300" rx="14" fill="url(#bg)"/>
  <rect x=".5" y=".5" width="879" height="299" rx="13.5" fill="none" stroke="#2b2545"/>
  <rect x="14" y="14" width="3" height="14" rx="1.5" fill="url(#edge)"/>
  <text class="t title" x="26" y="25">repository constellation</text>
  <text class="f cap mono" x="864" y="25" text-anchor="end">77 repos</text>
  <text class="f cap mono" x="46" y="50">X = LAST PUSH · Y = STARS (LOG SCALE) · COLOR = PRIMARY LANGUAGE</text>
  <line x1="143.4" y1="62" x2="143.4" y2="232" stroke="#242040" stroke-width="1" stroke-dasharray="2 6"/>
  <text class="f cap mono" x="143.4" y="248" text-anchor="middle">2021</text>
  <line x1="264.9" y1="62" x2="264.9" y2="232" stroke="#242040" stroke-width="1" stroke-dasharray="2 6"/>
  <text class="f cap mono" x="264.9" y="248" text-anchor="middle">2022</text>
  <line x1="386.4" y1="62" x2="386.4" y2="232" stroke="#242040" stroke-width="1" stroke-dasharray="2 6"/>
  <text class="f cap mono" x="386.4" y="248" text-anchor="middle">2023</text>
  <line x1="508.0" y1="62" x2="508.0" y2="232" stroke="#242040" stroke-width="1" stroke-dasharray="2 6"/>
  <text class="f cap mono" x="508.0" y="248" text-anchor="middle">2024</text>
  <line x1="629.8" y1="62" x2="629.8" y2="232" stroke="#242040" stroke-width="1" stroke-dasharray="2 6"/>
  <text class="f cap mono" x="629.8" y="248" text-anchor="middle">2025</text>
  <line x1="751.3" y1="62" x2="751.3" y2="232" stroke="#242040" stroke-width="1" stroke-dasharray="2 6"/>
  <text class="f cap mono" x="751.3" y="248" text-anchor="middle">2026</text>
  <line x1="46" y1="212.5" x2="840" y2="212.5" stroke="#242040" stroke-width="1" stroke-dasharray="1 7"/>
  <text class="f cap mono" x="38" y="215.5" text-anchor="end">1</text>
  <line x1="46" y1="164.4" x2="840" y2="164.4" stroke="#242040" stroke-width="1" stroke-dasharray="1 7"/>
  <text class="f cap mono" x="38" y="167.4" text-anchor="end">10</text>
  <line x1="46" y1="101.8" x2="840" y2="101.8" stroke="#242040" stroke-width="1" stroke-dasharray="1 7"/>
  <text class="f cap mono" x="38" y="104.8" text-anchor="end">100</text>
  <line x1="46" y1="233" x2="840" y2="233" stroke="#2b2545" stroke-width="1"/>
  <circle class="glow" cx="839.9" cy="72.0" r="20.7" fill="#3572A5" opacity=".18" style="animation-delay:0ms"/>
  <circle class="pop" cx="839.9" cy="72.0" r="9.0" fill="#3572A5" opacity=".92" style="animation-delay:0ms"/>
  <circle class="pop" cx="839.9" cy="232.0" r="2.4" fill="#3572A5" opacity=".92" style="animation-delay:22ms"/>
  <circle class="glow" cx="839.7" cy="97.5" r="15.2" fill="#00ADD8" opacity=".18" style="animation-delay:1200ms"/>
  <circle class="pop" cx="839.7" cy="97.5" r="6.6" fill="#00ADD8" opacity=".92" style="animation-delay:44ms"/>
  <circle class="pop" cx="839.7" cy="212.5" r="2.8" fill="#f1e05a" opacity=".92" style="animation-delay:66ms"/>
  <circle class="pop" cx="839.7" cy="232.0" r="2.4" fill="#3572A5" opacity=".92" style="animation-delay:88ms"/>
  <circle class="pop" cx="838.6" cy="232.0" r="2.4" fill="#3572A5" opacity=".92" style="animation-delay:110ms"/>
  <circle class="pop" cx="838.5" cy="141.2" r="4.3" fill="#3572A5" opacity=".92" style="animation-delay:132ms"/>
  <circle class="pop" cx="837.4" cy="232.0" r="2.4" fill="#3178c6" opacity=".92" style="animation-delay:154ms"/>
  <circle class="pop" cx="834.7" cy="192.9" r="3.1" fill="#3178c6" opacity=".92" style="animation-delay:176ms"/>
  <circle class="pop" cx="832.3" cy="232.0" r="2.4" fill="#3572A5" opacity=".92" style="animation-delay:198ms"/>
  <circle class="pop" cx="831.8" cy="212.5" r="2.8" fill="#3178c6" opacity=".92" style="animation-delay:220ms"/>
  <circle class="pop" cx="828.4" cy="232.0" r="2.4" fill="#89e051" opacity=".92" style="animation-delay:242ms"/>
  <circle class="pop" cx="825.1" cy="186.6" r="3.2" fill="#f1e05a" opacity=".92" style="animation-delay:264ms"/>
  <circle class="pop" cx="820.9" cy="232.0" r="2.4" fill="#00ADD8" opacity=".92" style="animation-delay:286ms"/>
  <circle class="pop" cx="809.9" cy="232.0" r="2.4" fill="#3178c6" opacity=".92" style="animation-delay:308ms"/>
  <circle class="pop" cx="808.1" cy="232.0" r="2.4" fill="#dea584" opacity=".92" style="animation-delay:330ms"/>
  <circle class="pop" cx="790.7" cy="232.0" r="2.4" fill="#3572A5" opacity=".92" style="animation-delay:352ms"/>
  <circle class="pop" cx="787.8" cy="232.0" r="2.4" fill="#3178c6" opacity=".92" style="animation-delay:374ms"/>
  <circle class="pop" cx="786.5" cy="232.0" r="2.4" fill="#7d8899" opacity=".92" style="animation-delay:396ms"/>
  <circle class="pop" cx="774.6" cy="232.0" r="2.4" fill="#3178c6" opacity=".92" style="animation-delay:418ms"/>
  <circle class="pop" cx="774.5" cy="232.0" r="2.4" fill="#dea584" opacity=".92" style="animation-delay:440ms"/>
  <circle class="pop" cx="772.7" cy="232.0" r="2.4" fill="#3178c6" opacity=".92" style="animation-delay:462ms"/>
  <circle class="pop" cx="769.4" cy="232.0" r="2.4" fill="#dea584" opacity=".92" style="animation-delay:484ms"/>
  <circle class="pop" cx="765.4" cy="232.0" r="2.4" fill="#3178c6" opacity=".92" style="animation-delay:506ms"/>
  <circle class="pop" cx="762.7" cy="201.0" r="2.9" fill="#3178c6" opacity=".92" style="animation-delay:528ms"/>
  <circle class="pop" cx="762.3" cy="232.0" r="2.4" fill="#3178c6" opacity=".92" style="animation-delay:550ms"/>
  <circle class="pop" cx="762.0" cy="232.0" r="2.4" fill="#7d8899" opacity=".92" style="animation-delay:572ms"/>
  <circle class="pop" cx="758.1" cy="212.5" r="2.8" fill="#3572A5" opacity=".92" style="animation-delay:594ms"/>
  <circle class="pop" cx="757.7" cy="232.0" r="2.4" fill="#dea584" opacity=".92" style="animation-delay:616ms"/>
  <circle class="pop" cx="757.4" cy="232.0" r="2.4" fill="#f1e05a" opacity=".92" style="animation-delay:638ms"/>
  <circle class="pop" cx="756.4" cy="232.0" r="2.4" fill="#00ADD8" opacity=".92" style="animation-delay:660ms"/>
  <circle class="pop" cx="745.5" cy="232.0" r="2.4" fill="#89e051" opacity=".92" style="animation-delay:682ms"/>
  <circle class="pop" cx="745.5" cy="232.0" r="2.4" fill="#3572A5" opacity=".92" style="animation-delay:704ms"/>
  <circle class="pop" cx="742.0" cy="232.0" r="2.4" fill="#f1e05a" opacity=".92" style="animation-delay:726ms"/>
  <circle class="pop" cx="737.8" cy="212.5" r="2.8" fill="#3178c6" opacity=".92" style="animation-delay:748ms"/>
  <circle class="pop" cx="729.8" cy="232.0" r="2.4" fill="#7d8899" opacity=".92" style="animation-delay:770ms"/>
  <circle class="pop" cx="716.4" cy="232.0" r="2.4" fill="#7d8899" opacity=".92" style="animation-delay:792ms"/>
  <circle class="pop" cx="694.9" cy="232.0" r="2.4" fill="#7d8899" opacity=".92" style="animation-delay:814ms"/>
  <circle class="pop" cx="686.6" cy="139.1" r="4.4" fill="#e34c26" opacity=".92" style="animation-delay:836ms"/>
  <circle class="pop" cx="673.6" cy="212.5" r="2.8" fill="#7d8899" opacity=".92" style="animation-delay:858ms"/>
  <circle class="pop" cx="654.5" cy="232.0" r="2.4" fill="#3178c6" opacity=".92" style="animation-delay:880ms"/>
  <circle class="pop" cx="654.5" cy="232.0" r="2.4" fill="#7d8899" opacity=".92" style="animation-delay:902ms"/>
  <circle class="pop" cx="654.5" cy="232.0" r="2.4" fill="#7d8899" opacity=".92" style="animation-delay:924ms"/>
  <circle class="pop" cx="615.0" cy="232.0" r="2.4" fill="#7d8899" opacity=".92" style="animation-delay:946ms"/>
  <circle class="pop" cx="610.4" cy="212.5" r="2.8" fill="#f1e05a" opacity=".92" style="animation-delay:968ms"/>
  <circle class="pop" cx="604.5" cy="186.6" r="3.2" fill="#3572A5" opacity=".92" style="animation-delay:990ms"/>
  <circle class="pop" cx="603.7" cy="232.0" r="2.4" fill="#7d8899" opacity=".92" style="animation-delay:1012ms"/>
  <circle class="pop" cx="591.6" cy="232.0" r="2.4" fill="#a91e50" opacity=".92" style="animation-delay:1034ms"/>
  <circle class="pop" cx="591.4" cy="232.0" r="2.4" fill="#f1e05a" opacity=".92" style="animation-delay:1056ms"/>
  <circle class="pop" cx="588.7" cy="232.0" r="2.4" fill="#3178c6" opacity=".92" style="animation-delay:1078ms"/>
  <circle class="pop" cx="578.6" cy="232.0" r="2.4" fill="#e34c26" opacity=".92" style="animation-delay:1100ms"/>
  <circle class="pop" cx="536.0" cy="232.0" r="2.4" fill="#3178c6" opacity=".92" style="animation-delay:1122ms"/>
  <circle class="pop" cx="532.4" cy="232.0" r="2.4" fill="#ff6347" opacity=".92" style="animation-delay:1144ms"/>
  <circle class="pop" cx="511.1" cy="232.0" r="2.4" fill="#e34c26" opacity=".92" style="animation-delay:1166ms"/>
  <circle class="pop" cx="494.3" cy="232.0" r="2.4" fill="#3178c6" opacity=".92" style="animation-delay:1188ms"/>
  <circle class="pop" cx="450.7" cy="232.0" r="2.4" fill="#7d8899" opacity=".92" style="animation-delay:1210ms"/>
  <circle class="pop" cx="446.2" cy="232.0" r="2.4" fill="#e34c26" opacity=".92" style="animation-delay:1232ms"/>
  <circle class="pop" cx="440.6" cy="232.0" r="2.4" fill="#e34c26" opacity=".92" style="animation-delay:1254ms"/>
  <circle class="pop" cx="422.2" cy="232.0" r="2.4" fill="#f1e05a" opacity=".92" style="animation-delay:1276ms"/>
  <circle class="pop" cx="409.1" cy="212.5" r="2.8" fill="#7355dd" opacity=".92" style="animation-delay:1298ms"/>
  <circle class="pop" cx="401.5" cy="212.5" r="2.8" fill="#e34c26" opacity=".92" style="animation-delay:1320ms"/>
  <circle class="pop" cx="379.8" cy="232.0" r="2.4" fill="#7d8899" opacity=".92" style="animation-delay:1342ms"/>
  <circle class="pop" cx="369.8" cy="186.6" r="3.2" fill="#3178c6" opacity=".92" style="animation-delay:1364ms"/>
  <circle class="pop" cx="344.9" cy="232.0" r="2.4" fill="#f1e05a" opacity=".92" style="animation-delay:1386ms"/>
  <circle class="pop" cx="305.2" cy="232.0" r="2.4" fill="#3178c6" opacity=".92" style="animation-delay:1408ms"/>
  <circle class="pop" cx="255.9" cy="212.5" r="2.8" fill="#f34b7d" opacity=".92" style="animation-delay:1430ms"/>
  <circle class="glow" cx="224.6" cy="98.4" r="15.0" fill="#f34b7d" opacity=".18" style="animation-delay:1800ms"/>
  <circle class="pop" cx="224.6" cy="98.4" r="6.5" fill="#f34b7d" opacity=".92" style="animation-delay:1452ms"/>
  <circle class="pop" cx="205.1" cy="232.0" r="2.4" fill="#e34c26" opacity=".92" style="animation-delay:1474ms"/>
  <circle class="pop" cx="204.3" cy="232.0" r="2.4" fill="#3178c6" opacity=".92" style="animation-delay:1496ms"/>
  <circle class="pop" cx="204.2" cy="232.0" r="2.4" fill="#f1e05a" opacity=".92" style="animation-delay:1518ms"/>
  <circle class="pop" cx="196.5" cy="232.0" r="2.4" fill="#7d8899" opacity=".92" style="animation-delay:1540ms"/>
  <circle class="pop" cx="195.0" cy="212.5" r="2.8" fill="#7d8899" opacity=".92" style="animation-delay:1562ms"/>
  <circle class="pop" cx="191.1" cy="232.0" r="2.4" fill="#4F5D95" opacity=".92" style="animation-delay:1584ms"/>
  <circle class="pop" cx="182.9" cy="232.0" r="2.4" fill="#f1e05a" opacity=".92" style="animation-delay:1606ms"/>
  <circle class="pop" cx="157.0" cy="232.0" r="2.4" fill="#f34b7d" opacity=".92" style="animation-delay:1628ms"/>
  <circle class="pop" cx="147.8" cy="181.5" r="3.3" fill="#3572A5" opacity=".92" style="animation-delay:1650ms"/>
  <circle class="pop" cx="46.0" cy="232.0" r="2.4" fill="#7d8899" opacity=".92" style="animation-delay:1672ms"/>
  <text class="d sm mono pop" x="822.9" y="75.5" text-anchor="end" style="animation-delay:900ms">HyperADRules · 290★</text>
  <text class="d sm mono pop" x="825.1" y="101.0" text-anchor="end" style="animation-delay:1020ms">OneSSH · 117★</text>
  <text class="d sm mono pop" x="239.2" y="101.9" text-anchor="start" style="animation-delay:1140ms">MyOI · 113★</text>
  <text class="d sm mono pop" x="699.0" y="142.6" text-anchor="start" style="animation-delay:1260ms">Ollama2OpenAI · 26★</text>
  <text class="d sm mono pop" x="826.2" y="144.7" text-anchor="end" style="animation-delay:1380ms">HyperSkills · 24★</text>
  <circle cx="50" cy="284" r="4" fill="#3178c6"/>
  <text class="f cap mono" x="59" y="288">TYPESCRIPT</text>
  <circle cx="168" cy="284" r="4" fill="#3572A5"/>
  <text class="f cap mono" x="177" y="288">PYTHON</text>
  <circle cx="286" cy="284" r="4" fill="#f1e05a"/>
  <text class="f cap mono" x="295" y="288">JAVASCRIPT</text>
  <circle cx="404" cy="284" r="4" fill="#e34c26"/>
  <text class="f cap mono" x="413" y="288">HTML</text>
  <circle cx="522" cy="284" r="4" fill="#dea584"/>
  <text class="f cap mono" x="531" y="288">RUST</text>
  <circle cx="640" cy="284" r="4" fill="#00ADD8"/>
  <text class="f cap mono" x="649" y="288">GO</text>
  <circle cx="758" cy="284" r="4" fill="#f34b7d"/>
  <text class="f cap mono" x="767" y="288">C++</text>
</svg>
