<svg xmlns="http://www.w3.org/2000/svg" width="1000" height="28" viewBox="0 0 1000 28" role="img" aria-labelledby="dt">
<title id="dt">Section divider: a faint signal trace with a travelling phase marker.</title>
<defs>
<linearGradient id="wv" gradientUnits="userSpaceOnUse" x1="40" y1="0" x2="960" y2="0"><stop offset="0" stop-color="#ffc857" stop-opacity="0"/><stop offset="0.09" stop-color="#ffc857" stop-opacity="0.85"/><stop offset="0.38" stop-color="#ff8f6b" stop-opacity="0.85"/><stop offset="0.72" stop-color="#e5657f" stop-opacity="0.85"/><stop offset="0.91" stop-color="#8d5a86" stop-opacity="0.85"/><stop offset="1" stop-color="#8d5a86" stop-opacity="0"/></linearGradient>
<linearGradient id="wf" gradientUnits="userSpaceOnUse" x1="40" y1="0" x2="960" y2="0"><stop offset="0" stop-color="#ffc857" stop-opacity="0"/><stop offset="0.09" stop-color="#ffc857" stop-opacity="0.357"/><stop offset="0.38" stop-color="#ff8f6b" stop-opacity="0.357"/><stop offset="0.72" stop-color="#e5657f" stop-opacity="0.357"/><stop offset="0.91" stop-color="#8d5a86" stop-opacity="0.357"/><stop offset="1" stop-color="#8d5a86" stop-opacity="0"/></linearGradient>
<linearGradient id="ph" gradientUnits="userSpaceOnUse" x1="40" y1="0" x2="960" y2="0"><stop offset="0" stop-color="#ffd28a" stop-opacity="0"/><stop offset="0.5" stop-color="#ffd28a" stop-opacity="0.95"/><stop offset="1" stop-color="#ffd28a" stop-opacity="0"/></linearGradient>
<linearGradient id="nl" gradientUnits="userSpaceOnUse" x1="40" y1="0" x2="960" y2="0"><stop offset="0" stop-color="#5c6b86" stop-opacity="0"/><stop offset="0.5" stop-color="#5c6b86" stop-opacity="0.5"/><stop offset="1" stop-color="#5c6b86" stop-opacity="0"/></linearGradient>
</defs>
<style>.crawl{animation:cr 6s linear infinite}.phase{animation:ph 14s linear infinite}.halo{animation:hl 8.4s ease-in-out infinite}.tick{animation:tk 12s ease-in-out infinite}@keyframes cr{from{stroke-dashoffset:0}to{stroke-dashoffset:-9}}@keyframes ph{from{stroke-dashoffset:0}to{stroke-dashoffset:-930.33}}@keyframes hl{0%,100%{transform:scale(.6);opacity:.24}50%{transform:scale(1.3);opacity:.05}}@keyframes tk{0%,100%{opacity:.16}50%{opacity:.34}}@media (prefers-reduced-motion: reduce){.crawl,.phase,.halo,.tick{animation:none}}</style>
<line class="crawl" x1="40" y1="14" x2="960" y2="14" stroke="url(#nl)" stroke-width="1" stroke-dasharray="1 8"/>
<path class="tick" d="M96 5.47V11.10M120 8.36V14.19M144 13.44V20.00M168 17.76V21.68M192 15.22V23.67M216 12.45V19.36M240 9.06V12.05M264 5.28V10.92M288 5.52V12.32M312 8.82V17.19M336 16.01V20.15M360 18.25V21.73M384 14.61V22.65M408 10.36V17.64M432 5.55V13.19M456 6.30V9.72M480 8.44V11.39M504 13.35V16.64M528 14.99V23.18M552 15.54V24.26M576 15.83V19.06M600 9.66V14.52M624 6.37V10.74M648 5.30V11.26M672 7.27V15.28M696 12.74V20.70M720 18.09V21.35M744 17.06V21.83M768 13.16V18.65M792 7.29V13.81M816 5.69V10.51M840 6.42V11.42M864 11.25V14.76M888 13.60V22.57" fill="none" stroke="url(#wv)" stroke-width="1.5" stroke-linecap="round" opacity="0.22"/>
<path d="M40 14 q92 6.4 184 0 q92 -6.4 184 0 q92 6.4 184 0 q92 -6.4 184 0 q92 6.4 184 0" fill="none" stroke="url(#wf)" stroke-width="1.1"/>
<path d="M40 14 q46 -12 92 0 q46 12 92 0 q46 -12 92 0 q46 12 92 0 q46 -12 92 0 q46 12 92 0 q46 -12 92 0 q46 12 92 0 q46 -12 92 0 q46 12 92 0" fill="none" stroke="url(#wv)" stroke-width="1.5" opacity="0.62"/>
<path class="phase" d="M40 14 q46 -12 92 0 q46 12 92 0 q46 -12 92 0 q46 12 92 0 q46 -12 92 0 q46 12 92 0 q46 -12 92 0 q46 12 92 0 q46 -12 92 0 q46 12 92 0" fill="none" stroke="url(#ph)" stroke-width="2.1" stroke-linecap="round" stroke-dasharray="40 890.33"/>
<g transform="translate(224 14)"><circle class="halo" style="animation-delay:0.0s" r="6" fill="#ffc857" opacity="0.2"/><circle r="2.1" fill="#ffc857" opacity="0.85"/></g><g transform="translate(500 14)"><circle class="halo" style="animation-delay:-2.7s" r="6" fill="#ff8f6b" opacity="0.2"/><circle r="2.1" fill="#ff8f6b" opacity="0.85"/></g><g transform="translate(776 14)"><circle class="halo" style="animation-delay:-5.4s" r="6" fill="#8d5a86" opacity="0.2"/><circle r="2.1" fill="#8d5a86" opacity="0.85"/></g>
</svg>
